{
	"asset":{
		"generator":"Khronos glTF Blender I/O v4.3.47",
		"version":"2.0"
	},
	"scene":0,
	"scenes":[
		{
			"name":"Scene",
			"nodes":[
				0,
				1
			]
		}
	],
	"nodes":[
		{
			"mesh":0,
			"name":"Cube",
			"scale":[
				1.4382071495056152,
				1.4382071495056152,
				1.4382071495056152
			],
			"translation":[
				0,
				5.817697048187256,
				0
			]
		},
		{
			"mesh":1,
			"name":"Cube.001",
			"scale":[
				1.4382071495056152,
				1.4382071495056152,
				1.4382071495056152
			],
			"translation":[
				0,
				5.817697048187256,
				0
			]
		}
	],
	"materials":[
		{
			"doubleSided":true,
			"name":"Material",
			"pbrMetallicRoughness":{
				"baseColorFactor":[
					1,
					0.9346190690994263,
					0.9989478588104248,
					1
				],
				"metallicFactor":0,
				"roughnessFactor":0.5
			}
		},
		{
			"doubleSided":true,
			"name":"Material.001",
			"pbrMetallicRoughness":{
				"baseColorFactor":[
					0.001554954331368208,
					0.001554954331368208,
					0.001554954331368208,
					1
				],
				"metallicFactor":0,
				"roughnessFactor":0.5
			}
		}
	],
	"meshes":[
		{
			"name":"Cube",
			"primitives":[
				{
					"attributes":{
						"POSITION":0,
						"NORMAL":1,
						"TEXCOORD_0":2,
						"COLOR_0":3,
						"COLOR_1":4
					},
					"indices":5,
					"material":0
				}
			]
		},
		{
			"name":"Cube.001",
			"primitives":[
				{
					"attributes":{
						"POSITION":6,
						"NORMAL":7,
						"TEXCOORD_0":8,
						"COLOR_0":9,
						"COLOR_1":10
					},
					"indices":11,
					"material":1
				}
			]
		}
	],
	"accessors":[
		{
			"bufferView":0,
			"componentType":5126,
			"count":23714,
			"max":[
				1.8183010816574097,
				0.8001665472984314,
				2.23726749420166
			],
			"min":[
				-0.9587778449058533,
				-4.736143112182617,
				-1.833863377571106
			],
			"type":"VEC3"
		},
		{
			"bufferView":1,
			"componentType":5126,
			"count":23714,
			"type":"VEC3"
		},
		{
			"bufferView":2,
			"componentType":5126,
			"count":23714,
			"type":"VEC2"
		},
		{
			"bufferView":3,
			"componentType":5121,
			"count":23714,
			"normalized":true,
			"type":"VEC4"
		},
		{
			"bufferView":4,
			"componentType":5123,
			"count":23714,
			"normalized":true,
			"type":"VEC4"
		},
		{
			"bufferView":5,
			"componentType":5123,
			"count":139152,
			"type":"SCALAR"
		},
		{
			"bufferView":6,
			"componentType":5126,
			"count":568,
			"max":[
				-0.6416158676147461,
				0.0567813515663147,
				0.5373501777648926
			],
			"min":[
				-0.9080941081047058,
				-0.5182008147239685,
				-0.5474839806556702
			],
			"type":"VEC3"
		},
		{
			"bufferView":7,
			"componentType":5126,
			"count":568,
			"type":"VEC3"
		},
		{
			"bufferView":8,
			"componentType":5126,
			"count":568,
			"type":"VEC2"
		},
		{
			"bufferView":9,
			"componentType":5121,
			"count":568,
			"normalized":true,
			"type":"VEC4"
		},
		{
			"bufferView":10,
			"componentType":5123,
			"count":568,
			"normalized":true,
			"type":"VEC4"
		},
		{
			"bufferView":11,
			"componentType":5123,
			"count":1602,
			"type":"SCALAR"
		}
	],
	"bufferViews":[
		{
			"buffer":0,
			"byteLength":284568,
			"byteOffset":0,
			"target":34962
		},
		{
			"buffer":0,
			"byteLength":284568,
			"byteOffset":284568,
			"target":34962
		},
		{
			"buffer":0,
			"byteLength":189712,
			"byteOffset":569136,
			"target":34962
		},
		{
			"buffer":0,
			"byteLength":94856,
			"byteOffset":758848,
			"target":34962
		},
		{
			"buffer":0,
			"byteLength":189712,
			"byteOffset":853704,
			"target":34962
		},
		{
			"buffer":0,
			"byteLength":278304,
			"byteOffset":1043416,
			"target":34963
		},
		{
			"buffer":0,
			"byteLength":6816,
			"byteOffset":1321720,
			"target":34962
		},
		{
			"buffer":0,
			"byteLength":6816,
			"byteOffset":1328536,
			"target":34962
		},
		{
			"buffer":0,
			"byteLength":4544,
			"byteOffset":1335352,
			"target":34962
		},
		{
			"buffer":0,
			"byteLength":2272,
			"byteOffset":1339896,
			"target":34962
		},
		{
			"buffer":0,
			"byteLength":4544,
			"byteOffset":1342168,
			"target":34962
		},
		{
			"buffer":0,
			"byteLength":3204,
			"byteOffset":1346712,
			"target":34963
		}
	],
	"buffers":[
		{
			"byteLength":1349916,
			"uri":"ghost.bin"
		}
	]
}
